<!DOCTYPE svg PUBLIC "-//W3C//DTD SVG 1.1//EN" "http://www.w3.org/Graphics/SVG/1.1/DTD/svg11.dtd">
<!-- Uploaded to: SVG Repo, www.svgrepo.com, Transformed by: SVG Repo Mixer Tools -->
<svg height="800px" width="800px" version="1.1" id="Layer_1" xmlns="http://www.w3.org/2000/svg" xmlns:xlink="http://www.w3.org/1999/xlink" viewBox="0 0 512 512" xml:space="preserve" fill="#000000">
<g id="SVGRepo_bgCarrier" stroke-width="0"/>
<g id="SVGRepo_tracerCarrier" stroke-linecap="round" stroke-linejoin="round"/>
<g id="SVGRepo_iconCarrier"> <path style="fill:#3a88fe;" d="M256,503.916c136.921,0,247.916-110.995,247.916-247.916S392.921,8.084,256,8.084 S8.084,119.08,8.084,256S119.08,503.916,256,503.916z M256,158.989c53.578,0,97.011,43.433,97.011,97.011S309.578,353.01,256,353.01 S158.989,309.578,158.989,256S202.422,158.989,256,158.989z"/> <path style="fill:#0061ff;" d="M256,8.084c-7.265,0-14.451,0.331-21.558,0.943C361.265,19.954,460.8,126.344,460.8,256 s-99.535,236.045-226.358,246.973c7.107,0.612,14.293,0.943,21.558,0.943c136.92,0,247.916-110.996,247.916-247.916 S392.92,8.084,256,8.084z"/> <g> <path style="fill:#E0E0E3;" d="M191.326,202.105v118.568L51.454,397.121l-4.418-6.852C21.201,350.196,7.545,303.767,7.545,256 c0-46.618,13.062-92.107,37.775-131.548l4.505-7.188L191.326,202.105z"/> <path style="fill:#E0E0E3;" d="M466.679,124.45c24.713,39.441,37.776,84.931,37.776,131.549c0,47.767-13.656,94.196-39.492,134.269 l-4.418,6.852l-139.871-76.448V202.105l141.501-84.843L466.679,124.45z"/> </g> <path style="fill:#3E3D43;" d="M256,353.549c53.789,0,97.549-43.76,97.549-97.549s-43.76-97.549-97.549-97.549 s-97.549,43.76-97.549,97.549S202.211,353.549,256,353.549z M256,202.105c29.765,0,53.895,24.13,53.895,53.895 s-24.13,53.895-53.895,53.895s-53.895-24.13-53.895-53.895S226.235,202.105,256,202.105z"/> <path style="fill:#3a88fe;" d="M460.03,396.841c27.665-40.002,43.885-88.523,43.885-140.841c0-51.273-15.567-98.91-42.23-138.445 l-31.566,18.927C449.664,171.926,460.8,212.659,460.8,256c0,44.9-11.944,87.003-32.817,123.325L460.03,396.841z"/> <path d="M437.019,74.981C388.667,26.628,324.379,0,256,0S123.333,26.628,74.982,74.981C26.628,123.333,0,187.62,0,256 s26.628,132.667,74.982,181.019C123.333,485.372,187.62,512,256,512s132.667-26.628,181.019-74.981 C485.372,388.667,512,324.379,512,256S485.372,123.333,437.019,74.981z M256,495.832c-79.855,0-150.707-39.24-194.321-99.439 l30.646-18.507c4.418-2.668,5.192-8.759,1.582-12.448c-0.039-0.04-0.078-0.079-0.116-0.119c-2.598-2.654-6.678-3.173-9.856-1.254 l-31.305,18.906C29.541,346.124,16.168,302.597,16.168,256c0-47.707,14.006-92.201,38.115-129.597l117.524,66.762 c-13.123,17.538-20.903,39.296-20.903,62.836c0,21.132,6.276,40.824,17.052,57.321l-52.803,31.889 c-4.438,2.68-5.191,8.803-1.547,12.492c0.039,0.04,0.079,0.079,0.117,0.119c2.596,2.627,6.661,3.118,9.822,1.209l54.281-32.782 c0.534,0.595,1.089,1.159,1.652,1.711c19.18,20.384,46.387,33.136,76.52,33.136c30.11,0,57.299-12.732,76.478-33.09 c0.58-0.573,1.155-1.153,1.696-1.757l116.147,70.145C406.707,456.592,335.855,495.832,256,495.832z M256,167.074 c49.033,0,88.926,39.892,88.926,88.926S305.033,344.926,256,344.926S167.074,305.034,167.074,256S206.967,167.074,256,167.074z M344.042,313.32c10.777-16.496,17.052-36.188,17.052-57.32c0-23.54-7.779-45.297-20.903-62.836l48.76-27.699 c4.596-2.611,5.443-8.881,1.706-12.618c-0.04-0.04-0.079-0.079-0.119-0.119c-2.547-2.547-6.48-3.078-9.612-1.3l-51.585,29.304 c-0.207-0.202-0.434-0.384-0.66-0.569c-18.891-18.112-44.51-29.258-72.684-29.258c-28.491,0-54.365,11.401-73.313,29.874 L63.534,113.065C107.288,54.302,177.273,16.168,256,16.168s148.711,38.134,192.465,96.895l-35.536,20.187 c-4.596,2.611-5.443,8.881-1.706,12.618l0.119,0.119c2.547,2.547,6.48,3.078,9.612,1.3l36.763-20.884 c24.11,37.396,38.117,81.891,38.117,129.597c0,46.597-13.372,90.124-36.46,126.971L344.042,313.32z"/> <path d="M256,317.979c34.176,0,61.979-27.803,61.979-61.979S290.176,194.021,256,194.021S194.021,221.824,194.021,256 S221.824,317.979,256,317.979z M256,210.189c25.26,0,45.811,20.55,45.811,45.811S281.26,301.811,256,301.811 S210.189,281.26,210.189,256S230.74,210.189,256,210.189z"/> </g>
</svg>