<!DOCTYPE svg PUBLIC "-//W3C//DTD SVG 1.1//EN" "http://www.w3.org/Graphics/SVG/1.1/DTD/svg11.dtd">
<!-- Uploaded to: SVG Repo, www.svgrepo.com, Transformed by: SVG Repo Mixer Tools -->
<svg height="800px" width="800px" version="1.1" id="Layer_1" xmlns="http://www.w3.org/2000/svg" xmlns:xlink="http://www.w3.org/1999/xlink" viewBox="0 0 512.001 512.001" xml:space="preserve" fill="#000000">
<g id="SVGRepo_bgCarrier" stroke-width="0"/>
<g id="SVGRepo_tracerCarrier" stroke-linecap="round" stroke-linejoin="round"/>
<g id="SVGRepo_iconCarrier"> <path style="fill:#0061ff;" d="M460.698,304.011v116.971c0,45.397-36.805,82.191-82.202,82.191H133.289 c-45.397,0-82.191-36.793-82.191-82.191V304.011L460.698,304.011L460.698,304.011z"/> <path style="fill:#d6d6d6;" d="M112.889,420.983V304.008H51.098v116.975c0,45.397,36.793,82.191,82.191,82.191h61.79 C149.682,503.174,112.889,466.38,112.889,420.983z"/> <path style="fill:#0061ff;" d="M450.439,258.355h-47.08v-54.982c0-81.311-66.152-147.464-147.464-147.464 S108.43,122.062,108.43,203.373v54.982H61.35v-54.982c0-107.272,87.272-194.545,194.545-194.545s194.545,87.272,194.545,194.545 L450.439,258.355L450.439,258.355z"/> <path style="fill:#d6d6d6;" d="M460.698,304.011v82.897c-29.155,9.275-62.535,1.718-84.745-22.681 c-16.102,17.679-38.065,26.518-60.028,26.518s-43.926-8.839-60.028-26.518c-16.102,17.679-38.065,26.518-60.028,26.518 s-43.926-8.839-60.028-26.518c-16.102,17.679-38.065,26.518-60.028,26.518c-8.345,0-16.69-1.283-24.717-3.837v-82.897H460.698z"/> <path style="fill:#CEC73C;" d="M272.906,254.553c0,1.283,0.035,2.554,0.094,3.802h-34.122h-0.094 c0.059-1.248,0.094-2.519,0.094-3.802c0-27.024-13.041-56.508-31.685-69.891c8.015-26.883,26.801-49.905,48.705-49.905 c21.892,0,40.689,23.022,48.693,49.905C285.936,198.057,272.906,227.541,272.906,254.553z"/> <path style="fill:#73D8D0;" d="M378.555,254.553c0,1.283-0.035,2.554-0.094,3.802H273c-0.059-1.248-0.094-2.519-0.094-3.802 c0-27.012,13.03-56.497,31.685-69.891c6.474-4.661,13.63-7.368,21.139-7.368C354.908,177.294,378.555,218.16,378.555,254.553z"/> <path style="fill:#B7AD30;" d="M234.753,143.008c6.474-4.661,13.63-7.368,21.139-7.368c-3.908,0-7.627,2.707-10.993,7.368 c-9.699,13.394-16.466,42.879-16.466,69.891c0,1.283,0.024,2.554,0.047,3.802h-25.318c-0.059-1.248-0.094-2.519-0.094-3.802 C203.068,185.887,216.098,156.402,234.753,143.008z"/> <path style="fill:#69CCC2;" d="M304.591,184.663c6.474-4.661,13.63-7.368,21.139-7.368c-3.908,0-7.627,2.707-10.993,7.368 c-9.699,13.394-16.466,42.879-16.466,69.891c0,1.283,0.024,2.554,0.047,3.802H273c-0.059-1.248-0.094-2.519-0.094-3.802 C272.906,227.542,285.936,198.057,304.591,184.663z"/> <path style="fill:#FC675B;" d="M238.879,254.553c0,1.283-0.035,2.554-0.094,3.802h-105.46c-0.059-1.248-0.094-2.519-0.094-3.802 c0-36.393,23.658-77.259,52.824-77.259c7.521,0,14.666,2.707,21.139,7.368C225.837,198.045,238.879,227.529,238.879,254.553z"/> <path style="fill:#d6d6d6;" d="M496.005,312.698c0,20.914-12.964,39.817-32.662,46.844c-0.122,0.044-0.245,0.087-0.366,0.129 c-29.665,10.421-64.221,3.112-87.026-21.929l0,0l0,0c-32.205,35.363-87.849,35.363-120.055,0l0,0l0,0 c-32.205,35.363-87.849,35.363-120.055,0l0,0l0,0c-22.429,24.629-56.227,32.104-85.558,22.429c-2.967-0.979-6.415-2.711-9.96-4.794 c-15.225-8.946-24.537-25.327-24.537-42.986v-28.76c0-13.959,11.316-25.275,25.275-25.275h429.672 c13.959,0,25.275,11.316,25.275,25.275L496.005,312.698z"/> <path style="fill:#E8564F;" d="M164.915,184.663c6.474-4.661,13.63-7.368,21.139-7.368c-3.908,0-7.627,2.707-10.993,7.368 c-9.699,13.394-16.466,42.879-16.466,69.891c0,1.283,0.024,2.554,0.047,3.802h-25.318c-0.059-1.248-0.094-2.519-0.094-3.802 C133.23,227.542,146.26,198.057,164.915,184.663z"/> <path style="fill:#d6d6d6;" d="M100.377,355.376c-15.225-8.946-24.537-25.327-24.537-42.986v-28.76 c0-13.959,11.316-25.275,25.275-25.275H41.059c-13.959,0-25.275,11.316-25.275,25.275v28.76c0,17.659,9.313,34.039,24.537,42.986 c3.545,2.083,6.993,3.816,9.96,4.794c18.144,5.985,37.993,5.4,55.807-1.741C104.257,357.562,102.333,356.526,100.377,355.376z"/> <path d="M494.95,259.515c-6.442-6.442-15.006-9.988-24.115-9.988h-11.463v-46.154c0-33.678-8.443-67.066-24.417-96.557 c-2.323-4.288-7.681-5.88-11.967-3.558c-4.288,2.322-5.88,7.679-3.558,11.967c14.58,26.917,22.286,57.398,22.286,88.149v46.154 h-29.425v-46.154c0.001-86.18-70.111-156.292-156.291-156.292S99.709,117.193,99.709,203.372v46.154H70.283v-46.154 c0-102.405,83.312-185.717,185.717-185.717c29.694,0,58.081,6.829,84.374,20.296c25.088,12.851,47.317,31.602,64.285,54.225 c2.926,3.901,8.458,4.692,12.359,1.766c3.899-2.925,4.69-8.458,1.766-12.359c-18.567-24.757-42.899-45.28-70.361-59.346 C319.616,7.482,288.52,0,256.001,0C143.861,0,52.628,91.233,52.628,203.372v46.154H41.165c-18.804,0-34.103,15.299-34.103,34.103 v28.761c0,20.737,11.071,40.123,28.892,50.596c2.309,1.357,4.437,2.494,6.422,3.432v54.564c0,50.188,40.831,91.018,91.018,91.018 h245.207c50.195,0,91.03-40.831,91.03-91.018v-54.399c21.251-9.065,35.307-30.289,35.307-53.888v-29.066 C504.939,274.52,501.392,265.956,494.95,259.515z M117.364,203.372c0-76.445,62.192-138.637,138.637-138.637 s138.637,62.192,138.637,138.637v46.154H282.013c1.502-22.891,12.962-47.017,27.843-57.701c5.258-3.785,10.634-5.705,15.981-5.705 c17.031,0,34.888,20.82,41.536,48.43c1.141,4.741,5.911,7.656,10.648,6.516c4.74-1.141,7.658-5.909,6.516-10.648 c-3.875-16.091-11.27-31.073-20.825-42.186c-11.118-12.932-24.215-19.767-37.875-19.767c-5.564,0-11.024,1.136-16.323,3.374 c-9.947-24.209-29.031-45.912-53.509-45.912c-24.472,0-43.562,21.705-53.518,45.914c-5.301-2.241-10.761-3.377-16.325-3.377 c-16.75,0-32.647,10.304-44.759,29.012c-9.827,15.176-15.8,33.889-16.745,52.049h-7.292v-46.154H117.364z M202.152,191.833 c14.872,10.674,26.332,34.801,27.833,57.694h-87.643c0.953-14.719,5.982-30.256,13.879-42.454 c8.622-13.316,19.534-20.952,29.94-20.952C191.507,186.121,196.884,188.041,202.152,191.833z M247.674,249.526 c-1.354-26.252-13.134-52.697-30.077-67.878c8.257-22.673,23.547-38.065,38.407-38.065c14.864,0,30.152,15.392,38.399,38.065 c-16.948,15.191-28.726,41.632-30.08,67.878H247.674z M487.283,312.695c0,17.328-10.77,32.81-26.814,38.534l-0.314,0.111 c-27.509,9.664-57.96,1.993-77.574-19.543c-1.673-1.837-4.042-2.884-6.527-2.884c-2.485,0-4.854,1.048-6.527,2.884 c-13.682,15.023-33.181,23.639-53.501,23.639c-20.32,0-39.819-8.616-53.502-23.639c-1.673-1.837-4.042-2.884-6.527-2.884 s-4.854,1.048-6.527,2.884c-17.164,18.847-42.372,27.181-67.445,22.294c-4.782-0.933-9.42,2.189-10.353,6.975 c-0.933,4.785,2.189,9.421,6.975,10.353c5.873,1.145,11.751,1.707,17.569,1.707c22.053,0,43.221-8.065,59.792-22.965 c16.412,14.667,37.821,22.931,60.016,22.931c0.001,0-0.001,0,0,0c22.195,0,43.608-8.266,60.022-22.935 c20.712,18.569,48.724,26.42,75.927,21.533v49.293c0,40.453-32.915,73.363-73.375,73.363H133.392 c-40.453,0-73.363-32.91-73.363-73.363v-49.301c27.174,4.843,55.26-3.052,75.908-21.52c4.404,3.952,9.171,7.452,14.248,10.452 c4.197,2.482,9.61,1.09,12.091-3.106s1.09-9.61-3.106-12.091c-6.179-3.653-11.798-8.236-16.701-13.617 c-1.673-1.837-4.043-2.884-6.527-2.884c-2.485,0-4.854,1.048-6.527,2.884c-19.208,21.091-49.141,28.938-76.266,19.989 c-1.464-0.483-4.085-1.572-8.252-4.022c-12.447-7.316-20.181-20.872-20.181-35.376v-28.761c0-9.068,7.379-16.446,16.448-16.446 h429.67c4.393,0,8.524,1.711,11.63,4.818s4.816,7.236,4.816,11.63v29.066H487.283z"/> <circle cx="75.918" cy="309.495" r="8.828"/> <circle cx="195.973" cy="309.495" r="8.828"/> <circle cx="316.028" cy="309.495" r="8.828"/> <circle cx="436.083" cy="309.495" r="8.828"/> </g>
</svg>